<mxfile host="Electron" agent="Mozilla/5.0 (Macintosh; Intel Mac OS X 10_15_7) AppleWebKit/537.36 (KHTML, like Gecko) draw.io/24.7.8 Chrome/128.0.6613.36 Electron/32.0.1 Safari/537.36" version="24.7.8">
  <diagram name="Page-1" id="jSXWTpS3RyeZjdynOVBC">
    <mxGraphModel dx="1836" dy="752" grid="0" gridSize="10" guides="1" tooltips="1" connect="1" arrows="1" fold="1" page="0" pageScale="1" pageWidth="850" pageHeight="1100" math="0" shadow="0">
      <root>
        <mxCell id="0" />
        <mxCell id="1" parent="0" />
        <mxCell id="SKjvzxltYUPloilvuwZc-4" value="Metric&lt;div&gt;Server&lt;/div&gt;" style="rounded=0;whiteSpace=wrap;html=1;sketch=1;curveFitting=1;jiggle=2;fontFamily=Gloria Hallelujah;fontSource=https%3A%2F%2Ffonts.googleapis.com%2Fcss%3Ffamily%3DGloria%2BHallelujah;fontSize=16;" vertex="1" parent="1">
          <mxGeometry x="-80" y="180" width="100" height="100" as="geometry" />
        </mxCell>
        <mxCell id="SKjvzxltYUPloilvuwZc-16" style="edgeStyle=orthogonalEdgeStyle;shape=connector;rounded=0;orthogonalLoop=1;jettySize=auto;html=1;exitX=0.5;exitY=1;exitDx=0;exitDy=0;entryX=0.5;entryY=0;entryDx=0;entryDy=0;strokeColor=#00FFFF;strokeWidth=2;align=center;verticalAlign=middle;fontFamily=Gloria Hallelujah;fontSource=https%3A%2F%2Ffonts.googleapis.com%2Fcss%3Ffamily%3DGloria%2BHallelujah;fontSize=16;fontColor=default;labelBackgroundColor=default;endArrow=classic;flowAnimation=1;" edge="1" parent="1" source="-pwEcgDj9VhP71NIo32f-1" target="SKjvzxltYUPloilvuwZc-7">
          <mxGeometry relative="1" as="geometry" />
        </mxCell>
        <mxCell id="SKjvzxltYUPloilvuwZc-51" style="edgeStyle=orthogonalEdgeStyle;shape=connector;rounded=0;orthogonalLoop=1;jettySize=auto;html=1;exitX=0;exitY=0.25;exitDx=0;exitDy=0;entryX=1;entryY=0.25;entryDx=0;entryDy=0;dashed=1;dashPattern=1 1;strokeColor=#FF0080;strokeWidth=2;align=center;verticalAlign=middle;fontFamily=Gloria Hallelujah;fontSource=https%3A%2F%2Ffonts.googleapis.com%2Fcss%3Ffamily%3DGloria%2BHallelujah;fontSize=16;fontColor=default;labelBackgroundColor=default;endArrow=oval;endFill=0;flowAnimation=1;" edge="1" parent="1" source="-pwEcgDj9VhP71NIo32f-1" target="SKjvzxltYUPloilvuwZc-4">
          <mxGeometry relative="1" as="geometry">
            <Array as="points">
              <mxPoint x="340" y="365" />
              <mxPoint x="340" y="205" />
            </Array>
          </mxGeometry>
        </mxCell>
        <mxCell id="-pwEcgDj9VhP71NIo32f-1" value="Pod" style="rounded=0;whiteSpace=wrap;html=1;sketch=1;curveFitting=1;jiggle=2;fontFamily=Gloria Hallelujah;fontSource=https%3A%2F%2Ffonts.googleapis.com%2Fcss%3Ffamily%3DGloria%2BHallelujah;fontSize=16;" parent="1" vertex="1">
          <mxGeometry x="370" y="340" width="100" height="100" as="geometry" />
        </mxCell>
        <mxCell id="SKjvzxltYUPloilvuwZc-14" style="edgeStyle=orthogonalEdgeStyle;shape=connector;rounded=0;orthogonalLoop=1;jettySize=auto;html=1;exitX=1;exitY=0.5;exitDx=0;exitDy=0;entryX=0;entryY=0.5;entryDx=0;entryDy=0;strokeColor=#00FFFF;strokeWidth=2;align=center;verticalAlign=middle;fontFamily=Gloria Hallelujah;fontSource=https%3A%2F%2Ffonts.googleapis.com%2Fcss%3Ffamily%3DGloria%2BHallelujah;fontSize=16;fontColor=default;labelBackgroundColor=default;endArrow=classic;flowAnimation=1;" edge="1" parent="1" source="SKjvzxltYUPloilvuwZc-1" target="-pwEcgDj9VhP71NIo32f-1">
          <mxGeometry relative="1" as="geometry" />
        </mxCell>
        <mxCell id="SKjvzxltYUPloilvuwZc-1" value="Replica&lt;div&gt;Set&lt;/div&gt;" style="rounded=0;whiteSpace=wrap;html=1;sketch=1;curveFitting=1;jiggle=2;fontFamily=Gloria Hallelujah;fontSource=https%3A%2F%2Ffonts.googleapis.com%2Fcss%3Ffamily%3DGloria%2BHallelujah;fontSize=16;" vertex="1" parent="1">
          <mxGeometry x="220" y="340" width="100" height="100" as="geometry" />
        </mxCell>
        <mxCell id="SKjvzxltYUPloilvuwZc-13" style="edgeStyle=orthogonalEdgeStyle;shape=connector;rounded=0;orthogonalLoop=1;jettySize=auto;html=1;exitX=1;exitY=0.5;exitDx=0;exitDy=0;strokeColor=#00FFFF;strokeWidth=2;align=center;verticalAlign=middle;fontFamily=Gloria Hallelujah;fontSource=https%3A%2F%2Ffonts.googleapis.com%2Fcss%3Ffamily%3DGloria%2BHallelujah;fontSize=16;fontColor=default;labelBackgroundColor=default;endArrow=classic;flowAnimation=1;" edge="1" parent="1" source="SKjvzxltYUPloilvuwZc-2" target="SKjvzxltYUPloilvuwZc-1">
          <mxGeometry relative="1" as="geometry" />
        </mxCell>
        <mxCell id="SKjvzxltYUPloilvuwZc-2" value="Deployment" style="rounded=0;whiteSpace=wrap;html=1;sketch=1;curveFitting=1;jiggle=2;fontFamily=Gloria Hallelujah;fontSource=https%3A%2F%2Ffonts.googleapis.com%2Fcss%3Ffamily%3DGloria%2BHallelujah;fontSize=16;" vertex="1" parent="1">
          <mxGeometry x="70" y="340" width="100" height="100" as="geometry" />
        </mxCell>
        <mxCell id="SKjvzxltYUPloilvuwZc-12" style="edgeStyle=orthogonalEdgeStyle;shape=connector;rounded=0;orthogonalLoop=1;jettySize=auto;html=1;exitX=1;exitY=0.5;exitDx=0;exitDy=0;entryX=0;entryY=0.5;entryDx=0;entryDy=0;strokeColor=#00FFFF;strokeWidth=2;align=center;verticalAlign=middle;fontFamily=Gloria Hallelujah;fontSource=https%3A%2F%2Ffonts.googleapis.com%2Fcss%3Ffamily%3DGloria%2BHallelujah;fontSize=16;fontColor=default;labelBackgroundColor=default;endArrow=classic;flowAnimation=1;" edge="1" parent="1" source="SKjvzxltYUPloilvuwZc-3" target="SKjvzxltYUPloilvuwZc-2">
          <mxGeometry relative="1" as="geometry" />
        </mxCell>
        <mxCell id="SKjvzxltYUPloilvuwZc-3" value="Horizontal&lt;div&gt;Pod&lt;/div&gt;&lt;div&gt;Scaler&lt;/div&gt;" style="rounded=0;whiteSpace=wrap;html=1;sketch=1;curveFitting=1;jiggle=2;fontFamily=Gloria Hallelujah;fontSource=https%3A%2F%2Ffonts.googleapis.com%2Fcss%3Ffamily%3DGloria%2BHallelujah;fontSize=16;" vertex="1" parent="1">
          <mxGeometry x="-80" y="340" width="100" height="100" as="geometry" />
        </mxCell>
        <mxCell id="SKjvzxltYUPloilvuwZc-17" style="edgeStyle=orthogonalEdgeStyle;shape=connector;rounded=0;orthogonalLoop=1;jettySize=auto;html=1;exitX=0.5;exitY=1;exitDx=0;exitDy=0;strokeColor=#FF00FF;strokeWidth=2;align=center;verticalAlign=middle;fontFamily=Gloria Hallelujah;fontSource=https%3A%2F%2Ffonts.googleapis.com%2Fcss%3Ffamily%3DGloria%2BHallelujah;fontSize=16;fontColor=default;labelBackgroundColor=default;endArrow=classic;flowAnimation=1;dashed=1;dashPattern=1 2;entryX=0.5;entryY=0;entryDx=0;entryDy=0;" edge="1" parent="1" source="SKjvzxltYUPloilvuwZc-54" target="SKjvzxltYUPloilvuwZc-29">
          <mxGeometry relative="1" as="geometry" />
        </mxCell>
        <mxCell id="SKjvzxltYUPloilvuwZc-5" value="Service" style="rounded=0;whiteSpace=wrap;html=1;sketch=1;curveFitting=1;jiggle=2;fontFamily=Gloria Hallelujah;fontSource=https%3A%2F%2Ffonts.googleapis.com%2Fcss%3Ffamily%3DGloria%2BHallelujah;fontSize=16;" vertex="1" parent="1">
          <mxGeometry x="370" y="110" width="100" height="100" as="geometry" />
        </mxCell>
        <mxCell id="SKjvzxltYUPloilvuwZc-18" style="edgeStyle=orthogonalEdgeStyle;shape=connector;rounded=0;orthogonalLoop=1;jettySize=auto;html=1;exitX=0.5;exitY=1;exitDx=0;exitDy=0;entryX=0.5;entryY=0;entryDx=0;entryDy=0;strokeColor=#FF00FF;strokeWidth=2;align=center;verticalAlign=middle;fontFamily=Gloria Hallelujah;fontSource=https%3A%2F%2Ffonts.googleapis.com%2Fcss%3Ffamily%3DGloria%2BHallelujah;fontSize=16;fontColor=default;labelBackgroundColor=default;endArrow=classic;flowAnimation=1;dashed=1;dashPattern=1 2;" edge="1" parent="1" source="SKjvzxltYUPloilvuwZc-6" target="SKjvzxltYUPloilvuwZc-5">
          <mxGeometry relative="1" as="geometry" />
        </mxCell>
        <mxCell id="SKjvzxltYUPloilvuwZc-6" value="Ingress" style="rounded=0;whiteSpace=wrap;html=1;sketch=1;curveFitting=1;jiggle=2;fontFamily=Gloria Hallelujah;fontSource=https%3A%2F%2Ffonts.googleapis.com%2Fcss%3Ffamily%3DGloria%2BHallelujah;fontSize=16;" vertex="1" parent="1">
          <mxGeometry x="370" y="30" width="100" height="50" as="geometry" />
        </mxCell>
        <mxCell id="SKjvzxltYUPloilvuwZc-19" style="edgeStyle=orthogonalEdgeStyle;shape=connector;rounded=0;orthogonalLoop=1;jettySize=auto;html=1;exitX=0.5;exitY=1;exitDx=0;exitDy=0;entryX=0.5;entryY=0;entryDx=0;entryDy=0;strokeColor=#00FFFF;strokeWidth=2;align=center;verticalAlign=middle;fontFamily=Gloria Hallelujah;fontSource=https%3A%2F%2Ffonts.googleapis.com%2Fcss%3Ffamily%3DGloria%2BHallelujah;fontSize=16;fontColor=default;labelBackgroundColor=default;endArrow=classic;flowAnimation=1;" edge="1" parent="1" source="SKjvzxltYUPloilvuwZc-7" target="SKjvzxltYUPloilvuwZc-9">
          <mxGeometry relative="1" as="geometry" />
        </mxCell>
        <mxCell id="SKjvzxltYUPloilvuwZc-58" style="edgeStyle=orthogonalEdgeStyle;shape=connector;rounded=0;orthogonalLoop=1;jettySize=auto;html=1;exitX=1;exitY=0.5;exitDx=0;exitDy=0;entryX=0;entryY=0.5;entryDx=0;entryDy=0;dashed=1;dashPattern=1 1;strokeColor=#FFFF00;strokeWidth=2;align=center;verticalAlign=middle;fontFamily=Gloria Hallelujah;fontSource=https%3A%2F%2Ffonts.googleapis.com%2Fcss%3Ffamily%3DGloria%2BHallelujah;fontSize=16;fontColor=default;labelBackgroundColor=default;endArrow=oval;endFill=0;flowAnimation=1;" edge="1" parent="1" source="SKjvzxltYUPloilvuwZc-7" target="SKjvzxltYUPloilvuwZc-57">
          <mxGeometry relative="1" as="geometry" />
        </mxCell>
        <mxCell id="SKjvzxltYUPloilvuwZc-7" value="PVC" style="rounded=0;whiteSpace=wrap;html=1;sketch=1;curveFitting=1;jiggle=2;fontFamily=Gloria Hallelujah;fontSource=https%3A%2F%2Ffonts.googleapis.com%2Fcss%3Ffamily%3DGloria%2BHallelujah;fontSize=16;" vertex="1" parent="1">
          <mxGeometry x="370" y="490" width="100" height="40" as="geometry" />
        </mxCell>
        <mxCell id="SKjvzxltYUPloilvuwZc-9" value="PV" style="rounded=0;whiteSpace=wrap;html=1;sketch=1;curveFitting=1;jiggle=2;fontFamily=Gloria Hallelujah;fontSource=https%3A%2F%2Ffonts.googleapis.com%2Fcss%3Ffamily%3DGloria%2BHallelujah;fontSize=16;" vertex="1" parent="1">
          <mxGeometry x="370" y="580" width="100" height="40" as="geometry" />
        </mxCell>
        <mxCell id="SKjvzxltYUPloilvuwZc-11" style="edgeStyle=orthogonalEdgeStyle;shape=connector;rounded=0;orthogonalLoop=1;jettySize=auto;html=1;entryX=0.5;entryY=1;entryDx=0;entryDy=0;strokeColor=#FF0080;strokeWidth=2;align=center;verticalAlign=middle;fontFamily=Gloria Hallelujah;fontSource=https%3A%2F%2Ffonts.googleapis.com%2Fcss%3Ffamily%3DGloria%2BHallelujah;fontSize=16;fontColor=default;labelBackgroundColor=default;endArrow=oval;flowAnimation=1;dashed=1;dashPattern=1 2;endFill=0;" edge="1" parent="1" source="SKjvzxltYUPloilvuwZc-3" target="SKjvzxltYUPloilvuwZc-4">
          <mxGeometry relative="1" as="geometry" />
        </mxCell>
        <mxCell id="SKjvzxltYUPloilvuwZc-20" value="LoadBalancer" style="rounded=0;whiteSpace=wrap;html=1;sketch=1;curveFitting=1;jiggle=2;fontFamily=Gloria Hallelujah;fontSource=https%3A%2F%2Ffonts.googleapis.com%2Fcss%3Ffamily%3DGloria%2BHallelujah;fontSize=16;" vertex="1" parent="1">
          <mxGeometry x="500" y="110" width="130" height="30" as="geometry" />
        </mxCell>
        <mxCell id="SKjvzxltYUPloilvuwZc-21" value="Cluster IP" style="rounded=0;whiteSpace=wrap;html=1;sketch=1;curveFitting=1;jiggle=2;fontFamily=Gloria Hallelujah;fontSource=https%3A%2F%2Ffonts.googleapis.com%2Fcss%3Ffamily%3DGloria%2BHallelujah;fontSize=16;" vertex="1" parent="1">
          <mxGeometry x="500" y="145" width="130" height="30" as="geometry" />
        </mxCell>
        <mxCell id="SKjvzxltYUPloilvuwZc-22" value="Node Port" style="rounded=0;whiteSpace=wrap;html=1;sketch=1;curveFitting=1;jiggle=2;fontFamily=Gloria Hallelujah;fontSource=https%3A%2F%2Ffonts.googleapis.com%2Fcss%3Ffamily%3DGloria%2BHallelujah;fontSize=16;" vertex="1" parent="1">
          <mxGeometry x="500" y="180" width="130" height="30" as="geometry" />
        </mxCell>
        <mxCell id="SKjvzxltYUPloilvuwZc-23" value="Domain name&lt;br&gt;Traffic&lt;div&gt;Redirection&lt;/div&gt;" style="shape=curlyBracket;whiteSpace=wrap;html=1;rounded=1;flipH=1;labelPosition=right;verticalLabelPosition=middle;align=left;verticalAlign=middle;sketch=1;jiggle=2;curveFitting=1;strokeColor=default;fontFamily=Gloria Hallelujah;fontSource=https%3A%2F%2Ffonts.googleapis.com%2Fcss%3Ffamily%3DGloria%2BHallelujah;fontSize=16;fontColor=default;labelBackgroundColor=default;fillColor=default;" vertex="1" parent="1">
          <mxGeometry x="500" y="25" width="20" height="60" as="geometry" />
        </mxCell>
        <mxCell id="SKjvzxltYUPloilvuwZc-28" value="" style="edgeStyle=orthogonalEdgeStyle;shape=connector;rounded=0;orthogonalLoop=1;jettySize=auto;html=1;strokeColor=default;strokeWidth=2;align=center;verticalAlign=middle;fontFamily=Gloria Hallelujah;fontSource=https%3A%2F%2Ffonts.googleapis.com%2Fcss%3Ffamily%3DGloria%2BHallelujah;fontSize=16;fontColor=default;labelBackgroundColor=default;endArrow=classic;flowAnimation=1;" edge="1" parent="1" source="SKjvzxltYUPloilvuwZc-24">
          <mxGeometry relative="1" as="geometry">
            <mxPoint x="730" y="170" as="targetPoint" />
          </mxGeometry>
        </mxCell>
        <mxCell id="SKjvzxltYUPloilvuwZc-24" value="Layer 4&lt;div&gt;Traffic&lt;/div&gt;&lt;div&gt;Redirection&lt;/div&gt;" style="shape=curlyBracket;whiteSpace=wrap;html=1;rounded=1;flipH=1;labelPosition=right;verticalLabelPosition=middle;align=left;verticalAlign=middle;sketch=1;jiggle=2;curveFitting=1;strokeColor=default;fontFamily=Gloria Hallelujah;fontSource=https%3A%2F%2Ffonts.googleapis.com%2Fcss%3Ffamily%3DGloria%2BHallelujah;fontSize=16;fontColor=default;labelBackgroundColor=default;fillColor=default;" vertex="1" parent="1">
          <mxGeometry x="650" y="110" width="20" height="100" as="geometry" />
        </mxCell>
        <mxCell id="SKjvzxltYUPloilvuwZc-29" value="Pod IP" style="rounded=0;whiteSpace=wrap;html=1;sketch=1;curveFitting=1;jiggle=2;fontFamily=Gloria Hallelujah;fontSource=https%3A%2F%2Ffonts.googleapis.com%2Fcss%3Ffamily%3DGloria%2BHallelujah;fontSize=16;" vertex="1" parent="1">
          <mxGeometry x="400" y="320" width="40" height="40" as="geometry" />
        </mxCell>
        <mxCell id="SKjvzxltYUPloilvuwZc-31" style="edgeStyle=orthogonalEdgeStyle;shape=connector;rounded=0;orthogonalLoop=1;jettySize=auto;html=1;exitX=0;exitY=0.25;exitDx=0;exitDy=0;entryX=1;entryY=0.25;entryDx=0;entryDy=0;strokeColor=#00FF00;strokeWidth=2;align=center;verticalAlign=middle;fontFamily=Gloria Hallelujah;fontSource=https%3A%2F%2Ffonts.googleapis.com%2Fcss%3Ffamily%3DGloria%2BHallelujah;fontSize=16;fontColor=default;labelBackgroundColor=default;endArrow=oval;flowAnimation=1;endFill=0;dashed=1;dashPattern=1 1;" edge="1" parent="1" source="SKjvzxltYUPloilvuwZc-30" target="SKjvzxltYUPloilvuwZc-29">
          <mxGeometry relative="1" as="geometry" />
        </mxCell>
        <mxCell id="SKjvzxltYUPloilvuwZc-56" style="edgeStyle=orthogonalEdgeStyle;shape=connector;rounded=0;orthogonalLoop=1;jettySize=auto;html=1;exitX=0.5;exitY=0;exitDx=0;exitDy=0;entryX=1;entryY=0.5;entryDx=0;entryDy=0;dashed=1;dashPattern=1 1;strokeColor=#00FF00;strokeWidth=2;align=center;verticalAlign=middle;fontFamily=Gloria Hallelujah;fontSource=https%3A%2F%2Ffonts.googleapis.com%2Fcss%3Ffamily%3DGloria%2BHallelujah;fontSize=16;fontColor=default;labelBackgroundColor=default;endArrow=oval;endFill=0;flowAnimation=1;" edge="1" parent="1" source="SKjvzxltYUPloilvuwZc-30" target="SKjvzxltYUPloilvuwZc-54">
          <mxGeometry relative="1" as="geometry" />
        </mxCell>
        <mxCell id="SKjvzxltYUPloilvuwZc-30" value="CNI" style="rounded=0;whiteSpace=wrap;html=1;sketch=1;curveFitting=1;jiggle=2;fontFamily=Gloria Hallelujah;fontSource=https%3A%2F%2Ffonts.googleapis.com%2Fcss%3Ffamily%3DGloria%2BHallelujah;fontSize=16;" vertex="1" parent="1">
          <mxGeometry x="500" y="320" width="80" height="40" as="geometry" />
        </mxCell>
        <mxCell id="SKjvzxltYUPloilvuwZc-34" value="hostpath" style="rounded=0;whiteSpace=wrap;html=1;sketch=1;curveFitting=1;jiggle=2;fontFamily=Gloria Hallelujah;fontSource=https%3A%2F%2Ffonts.googleapis.com%2Fcss%3Ffamily%3DGloria%2BHallelujah;fontSize=16;" vertex="1" parent="1">
          <mxGeometry x="500" y="560" width="130" height="30" as="geometry" />
        </mxCell>
        <mxCell id="SKjvzxltYUPloilvuwZc-37" value="NFS" style="rounded=0;whiteSpace=wrap;html=1;sketch=1;curveFitting=1;jiggle=2;fontFamily=Gloria Hallelujah;fontSource=https%3A%2F%2Ffonts.googleapis.com%2Fcss%3Ffamily%3DGloria%2BHallelujah;fontSize=16;" vertex="1" parent="1">
          <mxGeometry x="500" y="600" width="130" height="30" as="geometry" />
        </mxCell>
        <mxCell id="SKjvzxltYUPloilvuwZc-38" value="vsphere Disk" style="rounded=0;whiteSpace=wrap;html=1;sketch=1;curveFitting=1;jiggle=2;fontFamily=Gloria Hallelujah;fontSource=https%3A%2F%2Ffonts.googleapis.com%2Fcss%3Ffamily%3DGloria%2BHallelujah;fontSize=16;" vertex="1" parent="1">
          <mxGeometry x="500" y="640" width="130" height="30" as="geometry" />
        </mxCell>
        <mxCell id="SKjvzxltYUPloilvuwZc-60" style="edgeStyle=orthogonalEdgeStyle;shape=connector;rounded=0;orthogonalLoop=1;jettySize=auto;html=1;exitX=0;exitY=0.5;exitDx=0;exitDy=0;entryX=0.5;entryY=1;entryDx=0;entryDy=0;dashed=1;dashPattern=1 1;strokeColor=#FFFF00;strokeWidth=2;align=center;verticalAlign=middle;fontFamily=Gloria Hallelujah;fontSource=https%3A%2F%2Ffonts.googleapis.com%2Fcss%3Ffamily%3DGloria%2BHallelujah;fontSize=16;fontColor=default;labelBackgroundColor=default;endArrow=oval;endFill=0;flowAnimation=1;" edge="1" parent="1" source="SKjvzxltYUPloilvuwZc-39" target="SKjvzxltYUPloilvuwZc-9">
          <mxGeometry relative="1" as="geometry" />
        </mxCell>
        <mxCell id="SKjvzxltYUPloilvuwZc-39" value="AWS EBS" style="rounded=0;whiteSpace=wrap;html=1;sketch=1;curveFitting=1;jiggle=2;fontFamily=Gloria Hallelujah;fontSource=https%3A%2F%2Ffonts.googleapis.com%2Fcss%3Ffamily%3DGloria%2BHallelujah;fontSize=16;" vertex="1" parent="1">
          <mxGeometry x="500" y="680" width="130" height="30" as="geometry" />
        </mxCell>
        <mxCell id="SKjvzxltYUPloilvuwZc-41" style="edgeStyle=orthogonalEdgeStyle;shape=connector;rounded=0;orthogonalLoop=1;jettySize=auto;html=1;entryX=1;entryY=0.5;entryDx=0;entryDy=0;dashed=1;dashPattern=1 1;strokeColor=#FFFF00;strokeWidth=2;align=center;verticalAlign=middle;fontFamily=Gloria Hallelujah;fontSource=https%3A%2F%2Ffonts.googleapis.com%2Fcss%3Ffamily%3DGloria%2BHallelujah;fontSize=16;fontColor=default;labelBackgroundColor=default;endArrow=oval;endFill=0;flowAnimation=1;" edge="1" parent="1" source="SKjvzxltYUPloilvuwZc-40" target="SKjvzxltYUPloilvuwZc-38">
          <mxGeometry relative="1" as="geometry" />
        </mxCell>
        <mxCell id="SKjvzxltYUPloilvuwZc-42" style="edgeStyle=orthogonalEdgeStyle;shape=connector;rounded=0;orthogonalLoop=1;jettySize=auto;html=1;exitX=0.25;exitY=1;exitDx=0;exitDy=0;entryX=1;entryY=0.5;entryDx=0;entryDy=0;dashed=1;dashPattern=1 1;strokeColor=#FFFF00;strokeWidth=2;align=center;verticalAlign=middle;fontFamily=Gloria Hallelujah;fontSource=https%3A%2F%2Ffonts.googleapis.com%2Fcss%3Ffamily%3DGloria%2BHallelujah;fontSize=16;fontColor=default;labelBackgroundColor=default;endArrow=oval;endFill=0;flowAnimation=1;" edge="1" parent="1" source="SKjvzxltYUPloilvuwZc-40" target="SKjvzxltYUPloilvuwZc-39">
          <mxGeometry relative="1" as="geometry" />
        </mxCell>
        <mxCell id="SKjvzxltYUPloilvuwZc-43" style="edgeStyle=orthogonalEdgeStyle;shape=connector;rounded=0;orthogonalLoop=1;jettySize=auto;html=1;exitX=0.25;exitY=0;exitDx=0;exitDy=0;entryX=1;entryY=0.5;entryDx=0;entryDy=0;dashed=1;dashPattern=1 1;strokeColor=#FFFF00;strokeWidth=2;align=center;verticalAlign=middle;fontFamily=Gloria Hallelujah;fontSource=https%3A%2F%2Ffonts.googleapis.com%2Fcss%3Ffamily%3DGloria%2BHallelujah;fontSize=16;fontColor=default;labelBackgroundColor=default;endArrow=oval;endFill=0;flowAnimation=1;" edge="1" parent="1" source="SKjvzxltYUPloilvuwZc-40" target="SKjvzxltYUPloilvuwZc-37">
          <mxGeometry relative="1" as="geometry" />
        </mxCell>
        <mxCell id="SKjvzxltYUPloilvuwZc-40" value="CSI" style="rounded=0;whiteSpace=wrap;html=1;sketch=1;curveFitting=1;jiggle=2;fontFamily=Gloria Hallelujah;fontSource=https%3A%2F%2Ffonts.googleapis.com%2Fcss%3Ffamily%3DGloria%2BHallelujah;fontSize=16;" vertex="1" parent="1">
          <mxGeometry x="680" y="635" width="80" height="40" as="geometry" />
        </mxCell>
        <mxCell id="SKjvzxltYUPloilvuwZc-61" style="edgeStyle=orthogonalEdgeStyle;shape=connector;rounded=0;orthogonalLoop=1;jettySize=auto;html=1;exitX=0;exitY=0.5;exitDx=0;exitDy=0;entryX=1;entryY=0.5;entryDx=0;entryDy=0;dashed=1;dashPattern=1 1;strokeColor=#7F00FF;strokeWidth=2;align=center;verticalAlign=middle;fontFamily=Gloria Hallelujah;fontSource=https%3A%2F%2Ffonts.googleapis.com%2Fcss%3Ffamily%3DGloria%2BHallelujah;fontSize=16;fontColor=default;labelBackgroundColor=default;endArrow=oval;endFill=0;flowAnimation=1;" edge="1" parent="1" source="SKjvzxltYUPloilvuwZc-44" target="-pwEcgDj9VhP71NIo32f-1">
          <mxGeometry relative="1" as="geometry" />
        </mxCell>
        <mxCell id="SKjvzxltYUPloilvuwZc-44" value="Containerd" style="rounded=0;whiteSpace=wrap;html=1;sketch=1;curveFitting=1;jiggle=2;fontFamily=Gloria Hallelujah;fontSource=https%3A%2F%2Ffonts.googleapis.com%2Fcss%3Ffamily%3DGloria%2BHallelujah;fontSize=16;" vertex="1" parent="1">
          <mxGeometry x="500" y="375" width="130" height="30" as="geometry" />
        </mxCell>
        <mxCell id="SKjvzxltYUPloilvuwZc-45" value="CRI-o" style="rounded=0;whiteSpace=wrap;html=1;sketch=1;curveFitting=1;jiggle=2;fontFamily=Gloria Hallelujah;fontSource=https%3A%2F%2Ffonts.googleapis.com%2Fcss%3Ffamily%3DGloria%2BHallelujah;fontSize=16;" vertex="1" parent="1">
          <mxGeometry x="500" y="410" width="130" height="30" as="geometry" />
        </mxCell>
        <mxCell id="SKjvzxltYUPloilvuwZc-48" style="edgeStyle=orthogonalEdgeStyle;shape=connector;rounded=0;orthogonalLoop=1;jettySize=auto;html=1;exitX=0;exitY=0.25;exitDx=0;exitDy=0;entryX=1;entryY=0.5;entryDx=0;entryDy=0;dashed=1;dashPattern=1 1;strokeColor=#7F00FF;strokeWidth=2;align=center;verticalAlign=middle;fontFamily=Gloria Hallelujah;fontSource=https%3A%2F%2Ffonts.googleapis.com%2Fcss%3Ffamily%3DGloria%2BHallelujah;fontSize=16;fontColor=default;labelBackgroundColor=default;endArrow=oval;endFill=0;flowAnimation=1;" edge="1" parent="1" source="SKjvzxltYUPloilvuwZc-47" target="SKjvzxltYUPloilvuwZc-44">
          <mxGeometry relative="1" as="geometry" />
        </mxCell>
        <mxCell id="SKjvzxltYUPloilvuwZc-49" style="edgeStyle=orthogonalEdgeStyle;shape=connector;rounded=0;orthogonalLoop=1;jettySize=auto;html=1;exitX=0;exitY=0.75;exitDx=0;exitDy=0;dashed=1;dashPattern=1 1;strokeColor=#7F00FF;strokeWidth=2;align=center;verticalAlign=middle;fontFamily=Gloria Hallelujah;fontSource=https%3A%2F%2Ffonts.googleapis.com%2Fcss%3Ffamily%3DGloria%2BHallelujah;fontSize=16;fontColor=default;labelBackgroundColor=default;endArrow=oval;endFill=0;flowAnimation=1;" edge="1" parent="1" source="SKjvzxltYUPloilvuwZc-47" target="SKjvzxltYUPloilvuwZc-45">
          <mxGeometry relative="1" as="geometry" />
        </mxCell>
        <mxCell id="SKjvzxltYUPloilvuwZc-50" style="edgeStyle=orthogonalEdgeStyle;shape=connector;rounded=0;orthogonalLoop=1;jettySize=auto;html=1;entryX=1;entryY=0.5;entryDx=0;entryDy=0;dashed=1;dashPattern=1 1;strokeColor=#00FF00;strokeWidth=2;align=center;verticalAlign=middle;fontFamily=Gloria Hallelujah;fontSource=https%3A%2F%2Ffonts.googleapis.com%2Fcss%3Ffamily%3DGloria%2BHallelujah;fontSize=16;fontColor=default;labelBackgroundColor=default;endArrow=oval;endFill=0;flowAnimation=1;exitX=0.5;exitY=0;exitDx=0;exitDy=0;" edge="1" parent="1" source="SKjvzxltYUPloilvuwZc-47" target="SKjvzxltYUPloilvuwZc-30">
          <mxGeometry relative="1" as="geometry" />
        </mxCell>
        <mxCell id="SKjvzxltYUPloilvuwZc-47" value="CRI" style="rounded=0;whiteSpace=wrap;html=1;sketch=1;curveFitting=1;jiggle=2;fontFamily=Gloria Hallelujah;fontSource=https%3A%2F%2Ffonts.googleapis.com%2Fcss%3Ffamily%3DGloria%2BHallelujah;fontSize=16;" vertex="1" parent="1">
          <mxGeometry x="680" y="390" width="80" height="40" as="geometry" />
        </mxCell>
        <mxCell id="SKjvzxltYUPloilvuwZc-55" value="" style="edgeStyle=orthogonalEdgeStyle;shape=connector;rounded=0;orthogonalLoop=1;jettySize=auto;html=1;exitX=0.5;exitY=1;exitDx=0;exitDy=0;strokeColor=#FF00FF;strokeWidth=2;align=center;verticalAlign=middle;fontFamily=Gloria Hallelujah;fontSource=https%3A%2F%2Ffonts.googleapis.com%2Fcss%3Ffamily%3DGloria%2BHallelujah;fontSize=16;fontColor=default;labelBackgroundColor=default;endArrow=classic;flowAnimation=1;dashed=1;dashPattern=1 2;entryX=0.5;entryY=0;entryDx=0;entryDy=0;" edge="1" parent="1" source="SKjvzxltYUPloilvuwZc-5" target="SKjvzxltYUPloilvuwZc-54">
          <mxGeometry relative="1" as="geometry">
            <mxPoint x="420" y="250" as="sourcePoint" />
            <mxPoint x="420" y="320" as="targetPoint" />
          </mxGeometry>
        </mxCell>
        <mxCell id="SKjvzxltYUPloilvuwZc-54" value="Network&lt;div&gt;Policy&lt;/div&gt;" style="rounded=0;whiteSpace=wrap;html=1;sketch=1;curveFitting=1;jiggle=2;fontFamily=Gloria Hallelujah;fontSource=https%3A%2F%2Ffonts.googleapis.com%2Fcss%3Ffamily%3DGloria%2BHallelujah;fontSize=16;" vertex="1" parent="1">
          <mxGeometry x="380" y="250" width="80" height="40" as="geometry" />
        </mxCell>
        <mxCell id="SKjvzxltYUPloilvuwZc-59" style="edgeStyle=orthogonalEdgeStyle;shape=connector;rounded=0;orthogonalLoop=1;jettySize=auto;html=1;exitX=1;exitY=0.5;exitDx=0;exitDy=0;entryX=0.5;entryY=0;entryDx=0;entryDy=0;dashed=1;dashPattern=1 1;strokeColor=#FFFF00;strokeWidth=2;align=center;verticalAlign=middle;fontFamily=Gloria Hallelujah;fontSource=https%3A%2F%2Ffonts.googleapis.com%2Fcss%3Ffamily%3DGloria%2BHallelujah;fontSize=16;fontColor=default;labelBackgroundColor=default;endArrow=oval;endFill=0;flowAnimation=1;" edge="1" parent="1" source="SKjvzxltYUPloilvuwZc-57" target="SKjvzxltYUPloilvuwZc-40">
          <mxGeometry relative="1" as="geometry" />
        </mxCell>
        <mxCell id="SKjvzxltYUPloilvuwZc-57" value="Storage Class" style="rounded=0;whiteSpace=wrap;html=1;sketch=1;curveFitting=1;jiggle=2;fontFamily=Gloria Hallelujah;fontSource=https%3A%2F%2Ffonts.googleapis.com%2Fcss%3Ffamily%3DGloria%2BHallelujah;fontSize=16;" vertex="1" parent="1">
          <mxGeometry x="500" y="490" width="100" height="40" as="geometry" />
        </mxCell>
      </root>
    </mxGraphModel>
  </diagram>
</mxfile>
